<svg width="50" height="36" viewBox="0 0 50 36" fill="none" xmlns="http://www.w3.org/2000/svg">
<path d="M48.3362 29.4777H45.781V3.56155C45.781 1.94562 44.471 0.63562 42.8551 0.63562H6.24076C4.62483 0.63562 3.31483 1.94562 3.31483 3.56155V29.4777H0.988387C0.588193 29.4777 0.263672 29.8023 0.263672 30.2025V31.803C0.263672 34.1208 2.14275 36 4.46071 36H31.7646C32.1648 36 32.4893 35.6755 32.4893 35.2753C32.4893 34.8751 32.1648 34.5506 31.7646 34.5506H4.46071C2.94323 34.5505 1.7131 33.3204 1.7131 31.803V30.9272H4.03965H18.7935C18.8192 32.33 19.9676 33.4636 21.3766 33.4636H27.948C29.3569 33.4636 30.5054 32.33 30.5311 30.9272H45.0565H47.6117V31.803C47.6117 33.3204 46.3816 34.5506 44.8641 34.5506H35.1467C34.7466 34.5506 34.422 34.8751 34.422 35.2753C34.422 35.6755 34.7466 36 35.1467 36H44.864C47.1818 36 49.061 34.1209 49.061 31.803V30.2025C49.0609 29.8022 48.7364 29.4777 48.3362 29.4777ZM27.9479 32.0141H21.3765C20.7668 32.0141 20.2678 31.5308 20.2427 30.9271H29.0817C29.0566 31.5307 28.5577 32.0141 27.9479 32.0141ZM44.3316 29.4777H4.76436V3.56155C4.76436 2.74734 5.42665 2.08505 6.24086 2.08505H42.8551C43.6693 2.08505 44.3316 2.74734 44.3316 3.56155V29.4777Z" fill="#00B341"/>
<path d="M42.3498 3.34119H14.2743C13.8741 3.34119 13.5496 3.66571 13.5496 4.06591C13.5496 4.4661 13.8741 4.79062 14.2743 4.79062H41.625V26.7721H7.46896V4.79053H10.8921C11.2923 4.79053 11.6168 4.466 11.6168 4.06581C11.6168 3.66562 11.2923 3.34109 10.8921 3.34109H6.74425C6.34405 3.34109 6.01953 3.66562 6.01953 4.06581V27.4967C6.01953 27.8969 6.34405 28.2214 6.74425 28.2214H42.3498C42.7499 28.2214 43.0745 27.8969 43.0745 27.4967V4.06591C43.0745 3.66562 42.75 3.34119 42.3498 3.34119Z" fill="#00B341"/>
</svg>
