<svg width="37" height="49" viewBox="0 0 37 49" fill="none" xmlns="http://www.w3.org/2000/svg">
<path d="M32.8831 0.474487H4.36704C2.0969 0.474487 0.25 2.32138 0.25 4.59153V7.06744C0.25 7.45589 0.564928 7.77082 0.953383 7.77082C1.34184 7.77082 1.65677 7.45589 1.65677 7.06744V4.59153C1.65677 3.09707 2.87259 1.88125 4.36704 1.88125H32.8831C34.3776 1.88125 35.5934 3.09707 35.5934 4.59153V44.3833C35.5934 45.8778 34.3776 47.0936 32.8831 47.0936H4.36704C2.87259 47.0936 1.65677 45.8778 1.65677 44.3833V9.88097C1.65677 9.49252 1.34184 9.17759 0.953383 9.17759C0.564928 9.17759 0.25 9.49252 0.25 9.88097V44.3833C0.25 46.6535 2.0969 48.5004 4.36704 48.5004H32.8831C35.1533 48.5004 37.0002 46.6535 37.0002 44.3833V4.59153C37.0002 2.32138 35.1533 0.474487 32.8831 0.474487Z" fill="#00B341"/>
<path d="M3.05078 6.2364V32.8128C3.05078 33.2013 3.36571 33.5162 3.75416 33.5162C4.14262 33.5162 4.45755 33.2013 4.45755 32.8128V6.93979H32.7926V16.5859C32.7926 16.9743 33.1076 17.2893 33.496 17.2893C33.8845 17.2893 34.1994 16.9743 34.1994 16.5859V6.2364C34.1994 5.84795 33.8845 5.53302 33.496 5.53302H3.75416C3.36562 5.53302 3.05078 5.84795 3.05078 6.2364Z" fill="#00B341"/>
<path d="M3.05078 40.9913C3.05078 41.3797 3.36571 41.6946 3.75416 41.6946H33.496C33.8845 41.6946 34.1994 41.3797 34.1994 40.9913V19.3995C34.1994 19.011 33.8845 18.6961 33.496 18.6961C33.1076 18.6961 32.7926 19.011 32.7926 19.3995V40.2879H4.45755V35.6265C4.45755 35.2381 4.14262 34.9231 3.75416 34.9231C3.36571 34.9231 3.05078 35.2381 3.05078 35.6265V40.9913Z" fill="#00B341"/>
<path d="M16.4824 44.2277C16.4824 45.4092 17.4436 46.3704 18.6252 46.3704C19.8068 46.3704 20.768 45.4092 20.768 44.2277C20.768 43.0462 19.8067 42.0849 18.6252 42.0849C17.4436 42.0849 16.4824 43.0462 16.4824 44.2277ZM19.3612 44.2277C19.3612 44.6336 19.031 44.9637 18.6252 44.9637C18.2193 44.9637 17.8892 44.6336 17.8892 44.2277C17.8892 43.8218 18.2193 43.4916 18.6252 43.4916C19.031 43.4916 19.3612 43.8218 19.3612 44.2277Z" fill="#00B341"/>
<path d="M21.6632 4.3963C22.0517 4.3963 22.3666 4.08137 22.3666 3.69292C22.3666 3.30446 22.0517 2.98953 21.6632 2.98953H18.4573C18.0688 2.98953 17.7539 3.30446 17.7539 3.69292C17.7539 4.08137 18.0688 4.3963 18.4573 4.3963H21.6632Z" fill="#00B341"/>
<path d="M15.7737 4.39328C16.1622 4.39328 16.4771 4.07836 16.4771 3.68989C16.4771 3.30143 16.1622 2.98651 15.7737 2.98651C15.3852 2.98651 15.0703 3.30143 15.0703 3.68989C15.0703 4.07836 15.3852 4.39328 15.7737 4.39328Z" fill="#00B341"/>
</svg>
