<svg width="152" height="40" viewBox="0 0 152 40" fill="none" xmlns="http://www.w3.org/2000/svg">
<path d="M0.0506329 1.01266C0.708861 0.911394 1.36709 0.708862 2.02532 0.708862C14.5823 0.708862 27.1392 0.708862 39.6962 0.708862C40.2025 0.708862 40.6582 0.810128 41.9747 0.962027C34.2278 11.7975 26.0253 21.7215 18.1266 32.5063C62.6329 32.5063 106.734 32.5063 151.089 32.5063C151.241 35.1899 151.342 37.6203 151.443 40C100.962 40 50.5316 40 0.0506329 40C0.0506329 39.4937 0.0506329 38.9873 0.0506329 38.481C5.67089 31.2405 11.2405 24 16.8608 16.7595C19.038 13.9241 21.1646 11.0886 23.6962 7.79747C22.1266 7.6962 21.2658 7.59494 20.3544 7.59494C14.6329 7.59494 8.91139 7.59494 3.18987 7.54431C2.12658 7.54431 1.06329 7.24051 0 7.08861C0.0506329 5.06329 0.0506329 3.03798 0.0506329 1.01266Z" fill="#00B341"/>
<path d="M151.95 16.7089C151.241 18.7342 150.785 20.962 149.722 22.8354C147.291 27.1392 143.139 29.2658 138.532 30.3797C131.291 32.1519 124.557 30.8861 118.988 25.7722C112.507 19.8481 113.165 10.0253 120.152 4.60759C123.038 2.37975 126.228 1.06329 129.823 0.607595C130.481 0.506329 131.038 0.202532 131.696 0C132.557 0 133.367 0 134.228 0C134.937 0.202532 135.646 0.405063 136.355 0.658228C139.241 1.72152 142.228 2.48101 144.912 3.94937C149.114 6.17722 150.937 10.2278 151.95 14.6835C151.95 15.3418 151.95 16.0506 151.95 16.7089ZM141.367 15.7975C141.215 14.6329 141.215 13.5696 140.912 12.6076C139.848 9.11392 137.975 6.27848 134.076 5.62025C131.089 5.11392 128.81 6.58228 127.19 8.91139C125.013 12.0506 124.456 15.5443 125.57 19.2405C126.785 23.1392 130.026 25.9747 133.215 25.9241C136.355 25.8734 139.595 23.0886 140.709 19.3418C141.063 18.1266 141.165 16.8608 141.367 15.7975Z" fill="#00B341"/>
<path d="M54.3793 6.32911C54.1261 6.88607 54.0248 7.03797 53.9742 7.18987C53.0122 12.7595 53.4679 13.3165 58.9869 13.3165C62.8856 13.3165 66.7337 13.4177 70.6324 13.2658C72.8603 13.1646 72.759 14.481 72.759 16C72.8097 17.6202 72.6578 18.7342 70.5312 18.6329C65.8729 18.481 61.2653 18.6835 56.6071 18.5316C54.5818 18.481 53.721 18.9873 53.7717 21.1646C53.8223 25.1646 53.721 25.2152 57.7717 25.2152C63.8476 25.2152 69.9236 25.2152 76.2021 25.2152C76.2021 26.9873 76.2021 28.6076 76.2021 30.481C75.4932 30.5316 74.7843 30.6835 74.0248 30.6835C64.759 30.6835 55.4426 30.6329 46.1767 30.7342C44.0502 30.7848 43.6451 29.9747 43.6451 28.1013C43.7464 19.8987 43.7464 11.7468 43.6451 3.5443C43.5945 1.51898 44.3033 0.962021 46.2274 0.962021C54.835 1.06329 63.4426 1.01265 72.0502 1.01265C76.8097 1.01265 77.0122 1.26582 75.9489 6.32911C68.8603 6.32911 61.6198 6.32911 54.3793 6.32911Z" fill="#00B341"/>
<path d="M101.114 6.37974C101.114 10.6329 101.165 14.5823 101.114 18.5316C101.064 21.8734 100.963 25.2658 100.912 28.6076C100.912 30.0759 100.406 30.7848 98.8359 30.6835C96.9119 30.5823 94.9372 30.5316 93.0131 30.6835C91.1397 30.8354 90.7347 30.0253 90.7853 28.3038C90.8359 21.8228 90.7347 15.3418 90.8359 8.86076C90.8866 6.83544 90.2283 6.17721 88.2536 6.32911C85.6714 6.48101 83.0385 6.27848 80.4055 6.37974C78.4815 6.48101 78.3802 5.31645 78.4309 3.94936C78.4815 2.53164 78.1271 0.962021 80.4055 0.962021C90.7853 1.01265 101.114 1.01265 111.494 0.962021C113.925 0.962021 113.216 2.68354 113.317 4C113.418 5.36708 113.317 6.48101 111.393 6.37974C108.152 6.32911 104.861 6.37974 101.114 6.37974Z" fill="#00B341"/>
</svg>
