<svg width="22" height="23" viewBox="0 0 22 23" fill="none" xmlns="http://www.w3.org/2000/svg">
<path d="M18.8377 3.28046C16.9457 1.3885 14.4301 0.346635 11.7546 0.346741C11.3162 0.346741 10.9609 0.702106 10.9609 1.14044C10.9609 1.57877 11.3163 1.93414 11.7546 1.93414C14.0062 1.93403 16.123 2.81081 17.7152 4.40297C19.3075 5.99512 20.1842 8.11208 20.1841 10.3637C20.1841 10.8021 20.5394 11.1574 20.9778 11.1574C21.4162 11.1574 21.7715 10.8021 21.7715 10.3639C21.7716 7.68803 20.7298 5.17243 18.8377 3.28046Z" fill="#E8712D"/>
<path d="M15.5728 10.3639C15.5728 10.8022 15.9281 11.1576 16.3666 11.1574C16.8049 11.1574 17.1601 10.8021 17.1601 10.3638C17.1599 7.38368 14.735 4.95887 11.7547 4.95845C11.7546 4.95845 11.7547 4.95845 11.7546 4.95845C11.3163 4.95845 10.961 5.31371 10.9609 5.75204C10.9609 6.19038 11.3162 6.54574 11.7545 6.54585C13.8597 6.54617 15.5725 8.25886 15.5728 10.3639Z" fill="#E8712D"/>
<path d="M13.8158 14.4107C12.6059 14.348 11.9896 15.2477 11.694 15.6799C11.4465 16.0418 11.5392 16.5357 11.901 16.7832C12.2629 17.0307 12.7568 16.938 13.0043 16.5762C13.3535 16.0656 13.5117 15.9853 13.7263 15.9954C14.4133 16.0762 17.1187 18.0587 17.3896 18.6786C17.4576 18.8612 17.455 19.0401 17.3821 19.2578C17.0981 20.1008 16.6279 20.6933 16.0221 20.971C15.4466 21.2348 14.7411 21.2109 13.9822 20.9021C11.1485 19.7471 8.6728 18.1352 6.624 16.1112C6.62315 16.1103 6.6223 16.1096 6.62156 16.1088C4.60176 14.062 2.99288 11.5894 1.83979 8.76006C1.53089 8.00054 1.50697 7.29489 1.77079 6.71951C2.04848 6.11376 2.6409 5.64357 3.48317 5.35985C3.7016 5.28662 3.88023 5.28429 4.06109 5.35159C4.68325 5.62346 6.66569 8.32881 6.7457 9.00801C6.75713 9.23067 6.67617 9.38877 6.16598 9.73736C5.80405 9.98457 5.71103 10.4785 5.95835 10.8404C6.20556 11.2023 6.69935 11.2952 7.06138 11.048C7.49379 10.7528 8.39331 10.1381 8.33087 8.92419C8.26209 7.65618 5.79548 4.2982 4.61689 3.86484C4.09273 3.66948 3.54138 3.6661 2.97753 3.85531C1.70889 4.28254 0.79264 5.04427 0.32785 6.05809C-0.12297 7.04164 -0.108684 8.18277 0.369652 9.35872C1.60369 12.3866 3.33025 15.036 5.50128 17.2335C5.50658 17.2389 5.51197 17.2442 5.51748 17.2494C7.71338 19.4164 10.3597 21.1397 13.3836 22.3723C13.9891 22.6186 14.5854 22.7419 15.1557 22.7419C15.6927 22.7419 16.2068 22.6326 16.6837 22.414C17.6976 21.9493 18.4592 21.0332 18.8867 19.7637C19.0755 19.2009 19.0725 18.6498 18.8786 18.128C18.4438 16.9463 15.0858 14.4797 13.8158 14.4107Z" fill="#E8712D"/>
</svg>
