<svg width="18" height="18" viewBox="0 0 18 18" fill="none" xmlns="http://www.w3.org/2000/svg">
<path d="M11.2112 9.03892L17.5345 2.67685C18.1552 2.05616 18.1552 1.08633 17.5345 0.465639C16.9138 -0.15505 15.944 -0.15505 15.3233 0.465639L9.03879 6.82771L2.67672 0.504432C2.05603 -0.116257 1.08621 -0.116257 0.465517 0.504432C-0.155172 1.12512 -0.155172 2.09495 0.465517 2.71564L6.78879 9.03892L0.50431 15.3622C-0.116379 15.9829 -0.116379 16.9527 0.50431 17.5734C0.814655 17.8449 1.20259 18.0001 1.59052 18.0001C1.97845 18.0001 2.36638 17.8449 2.67672 17.5346L9 11.2113L15.3233 17.5346C15.6336 17.8449 16.0216 18.0001 16.4095 18.0001C16.7974 18.0001 17.1853 17.8449 17.4957 17.5346C18.1164 16.9139 18.1164 15.9441 17.4957 15.3234L11.2112 9.03892Z" fill="white"/>
</svg>
