<svg width="14" height="17" viewBox="0 0 14 17" fill="none" xmlns="http://www.w3.org/2000/svg">
<path d="M9.64635 6.26022C9.43606 6.26022 9.26562 6.43066 9.26562 6.64095V13.8367C9.26562 14.0468 9.43606 14.2174 9.64635 14.2174C9.85664 14.2174 10.0271 14.0468 10.0271 13.8367V6.64095C10.0271 6.43066 9.85664 6.26022 9.64635 6.26022Z" fill="black"/>
<path d="M5.15416 6.26022C4.94387 6.26022 4.77344 6.43066 4.77344 6.64095V13.8367C4.77344 14.0468 4.94387 14.2174 5.15416 14.2174C5.36446 14.2174 5.53489 14.0468 5.53489 13.8367V6.64095C5.53489 6.43066 5.36446 6.26022 5.15416 6.26022Z" fill="black"/>
<path d="M1.8782 5.21011V14.5904C1.8782 15.1448 2.0815 15.6655 2.43664 16.0391C2.79015 16.4137 3.28212 16.6264 3.79699 16.6273H11.0004C11.5155 16.6264 12.0074 16.4137 12.3608 16.0391C12.7159 15.6655 12.9192 15.1448 12.9192 14.5904V5.21011C13.6252 5.02272 14.0827 4.34069 13.9882 3.61627C13.8936 2.892 13.2766 2.35021 12.5461 2.35006H10.5968V1.87415C10.599 1.47395 10.4408 1.08965 10.1575 0.806934C9.87417 0.524364 9.48928 0.367017 9.08907 0.370289H5.70835C5.30814 0.367017 4.92325 0.524364 4.63994 0.806934C4.35663 1.08965 4.19839 1.47395 4.20062 1.87415V2.35006H2.25134C1.52082 2.35021 0.903778 2.892 0.809192 3.61627C0.714754 4.34069 1.17222 5.02272 1.8782 5.21011ZM11.0004 15.8658H3.79699C3.14604 15.8658 2.63965 15.3066 2.63965 14.5904V5.24357H12.1578V14.5904C12.1578 15.3066 11.6514 15.8658 11.0004 15.8658ZM4.96207 1.87415C4.95954 1.67591 5.03747 1.4851 5.17816 1.34515C5.3187 1.20521 5.50996 1.12832 5.70835 1.13174H9.08907C9.28747 1.12832 9.47872 1.20521 9.61926 1.34515C9.75995 1.48495 9.83788 1.67591 9.83535 1.87415V2.35006H4.96207V1.87415ZM2.25134 3.11151H12.5461C12.9246 3.11151 13.2314 3.41832 13.2314 3.79682C13.2314 4.17531 12.9246 4.48212 12.5461 4.48212H2.25134C1.87284 4.48212 1.56603 4.17531 1.56603 3.79682C1.56603 3.41832 1.87284 3.11151 2.25134 3.11151Z" fill="black"/>
<path d="M7.40026 6.26022C7.18997 6.26022 7.01953 6.43066 7.01953 6.64095V13.8367C7.01953 14.0468 7.18997 14.2174 7.40026 14.2174C7.61055 14.2174 7.78098 14.0468 7.78098 13.8367V6.64095C7.78098 6.43066 7.61055 6.26022 7.40026 6.26022Z" fill="black"/>
</svg>
