<svg width="24" height="17" viewBox="0 0 24 17" fill="none" xmlns="http://www.w3.org/2000/svg">
<path d="M17.7216 10.5628C16.1412 10.5628 14.8555 11.8485 14.8555 13.4289C14.8555 15.0093 16.1412 16.295 17.7216 16.295C19.3022 16.295 20.5876 15.0093 20.5876 13.4289C20.5876 11.8485 19.302 10.5628 17.7216 10.5628ZM17.7216 14.862C16.9312 14.862 16.2885 14.2192 16.2885 13.4289C16.2885 12.6386 16.9312 11.9959 17.7216 11.9959C18.5119 11.9959 19.1546 12.6386 19.1546 13.4289C19.1546 14.2193 18.5119 14.862 17.7216 14.862Z" fill="#E8712D"/>
<path d="M7.92859 10.5628C6.34819 10.5628 5.0625 11.8485 5.0625 13.4289C5.0625 15.0093 6.34819 16.295 7.92859 16.295C9.50899 16.295 10.7947 15.0093 10.7947 13.4289C10.7947 11.8485 9.50899 10.5628 7.92859 10.5628ZM7.92859 14.862C7.13828 14.862 6.49554 14.2192 6.49554 13.4289C6.49554 12.6386 7.13828 11.9959 7.92859 11.9959C8.71868 11.9959 9.36163 12.6386 9.36163 13.4289C9.36163 14.2193 8.7189 14.862 7.92859 14.862Z" fill="#E8712D"/>
<path d="M19.6523 2.35917C19.5305 2.11723 19.2828 1.96459 19.012 1.96459H15.2383V3.39764H18.5701L20.5212 7.2783L21.8018 6.63437L19.6523 2.35917Z" fill="#E8712D"/>
<path d="M15.5721 12.7363H10.1504V14.1693H15.5721V12.7363Z" fill="#E8712D"/>
<path d="M5.77853 12.7363H3.29463C2.89885 12.7363 2.57812 13.0571 2.57812 13.4528C2.57812 13.8486 2.89889 14.1693 3.29463 14.1693H5.77857C6.17435 14.1693 6.49507 13.8485 6.49507 13.4528C6.49507 13.057 6.1743 12.7363 5.77853 12.7363Z" fill="#E8712D"/>
<path d="M23.1351 8.35595L21.7257 6.54076C21.5903 6.36592 21.3813 6.26369 21.1599 6.26369H15.9532V1.24806C15.9532 0.852279 15.6324 0.531555 15.2367 0.531555H3.29463C2.89885 0.531555 2.57812 0.852324 2.57812 1.24806C2.57812 1.64379 2.89889 1.96456 3.29463 1.96456H14.5201V6.98019C14.5201 7.37597 14.8409 7.69669 15.2366 7.69669H20.809L21.8525 9.04087V12.7362H19.8701C19.4743 12.7362 19.1536 13.057 19.1536 13.4527C19.1536 13.8485 19.4744 14.1692 19.8701 14.1692H22.569C22.9648 14.1692 23.2855 13.8485 23.2855 13.4527V8.79542C23.2855 8.63635 23.2325 8.48158 23.1351 8.35595Z" fill="#E8712D"/>
<path d="M5.73127 9.10593H2.43525C2.03947 9.10593 1.71875 9.4267 1.71875 9.82243C1.71875 10.2182 2.03952 10.5389 2.43525 10.5389H5.73122C6.127 10.5389 6.44772 10.2182 6.44772 9.82243C6.44777 9.4267 6.127 9.10593 5.73127 9.10593Z" fill="#E8712D"/>
<path d="M7.37965 6.28759H1.26533C0.869597 6.28759 0.548828 6.60836 0.548828 7.00413C0.548828 7.39991 0.869597 7.72063 1.26533 7.72063H7.37965C7.77543 7.72063 8.09615 7.39987 8.09615 7.00413C8.09615 6.6084 7.77543 6.28759 7.37965 6.28759Z" fill="#E8712D"/>
<path d="M8.54957 3.46928H2.43525C2.03947 3.46928 1.71875 3.79005 1.71875 4.18578C1.71875 4.58155 2.03952 4.90228 2.43525 4.90228H8.54957C8.94535 4.90228 9.26607 4.58151 9.26607 4.18578C9.26612 3.79005 8.94535 3.46928 8.54957 3.46928Z" fill="#E8712D"/>
</svg>
