<svg width="16" height="30" viewBox="0 0 16 30" fill="none" xmlns="http://www.w3.org/2000/svg">
<path d="M15.404 0.169666L11.6071 0.163574C7.34134 0.163574 4.58462 2.99187 4.58462 7.36941V10.6918H0.766956C0.437064 10.6918 0.169922 10.9592 0.169922 11.2891V16.1029C0.169922 16.4328 0.437369 16.6999 0.766956 16.6999H4.58462V28.8465C4.58462 29.1764 4.85176 29.4435 5.18166 29.4435H10.1626C10.4925 29.4435 10.7597 29.1761 10.7597 28.8465V16.6999H15.2234C15.5533 16.6999 15.8204 16.4328 15.8204 16.1029L15.8223 11.2891C15.8223 11.1307 15.7592 10.979 15.6474 10.8669C15.5356 10.7548 15.3833 10.6918 15.2249 10.6918H10.7597V7.87537C10.7597 6.52168 11.0822 5.83448 12.8456 5.83448L15.4034 5.83357C15.733 5.83357 16.0002 5.56612 16.0002 5.23654V0.766701C16.0002 0.437418 15.7333 0.170276 15.404 0.169666Z" fill="#00B341"/>
</svg>
