<svg width="23" height="23" viewBox="0 0 23 23" fill="none" xmlns="http://www.w3.org/2000/svg">
<path d="M19.0956 14.2237C20.0457 12.7808 20.5996 11.0549 20.5996 9.20167C20.5996 4.15236 16.4916 0.0444946 11.4422 0.0444946C6.39294 0.0444946 2.28508 4.15236 2.28508 9.20167C2.28508 11.0549 2.83898 12.7808 3.78892 14.2237L0.207031 19.4476L4.3057 18.6834L5.07003 22.7821L8.44791 17.8556C9.38675 18.1814 10.3941 18.3588 11.4422 18.3588C12.4905 18.3588 13.4979 18.1814 14.4366 17.8556L17.8146 22.7821L18.5788 18.6834L22.6775 19.4476L19.0956 14.2237ZM5.79428 19.356L5.37742 17.1202L3.14186 17.5373L4.65039 15.3371C5.37291 16.1361 6.23421 16.8071 7.1956 17.3126L5.79428 19.356ZM3.62516 9.20167C3.62516 4.89136 7.13194 1.38458 11.4422 1.38458C15.7527 1.38458 19.2595 4.89136 19.2595 9.20167C19.2595 13.5121 15.7527 17.0189 11.4422 17.0189C7.13194 17.0189 3.62516 13.5121 3.62516 9.20167ZM17.5071 17.1202L17.0902 19.356L15.6891 17.3126C16.6505 16.8071 17.5118 16.1361 18.2343 15.3371L19.7428 17.5371L17.5071 17.1202Z" fill="#E8712D"/>
<path d="M9.80994 11.2127L7.63111 9.03408L6.68359 9.9816L9.80994 13.1079L16.2012 6.71682L15.2537 5.7693L9.80994 11.2127Z" fill="#E8712D"/>
</svg>
