<svg width="38" height="35" viewBox="0 0 38 35" fill="none" xmlns="http://www.w3.org/2000/svg">
<path d="M37.7131 5.0494C37.5553 4.89163 37.3975 4.73379 37.082 4.73379H7.10079L6.31179 0.631157C6.31179 0.315542 5.8384 1.29981e-08 5.52279 1.29981e-08H0.788928C0.315615 -7.39536e-05 0 0.315541 0 0.788928C0 1.26231 0.315615 1.57793 0.789001 1.57793H4.89171L8.67879 20.829C9.15218 23.3537 11.5191 25.2472 14.0438 25.2472H32.1903C32.6636 25.2472 32.9793 24.9316 32.9793 24.4582C32.9793 23.9848 32.6636 23.6692 32.1903 23.6692H14.2016C12.9392 23.6692 11.6769 23.0381 11.0457 21.9335L34.0838 18.7776C34.3994 18.7776 34.715 18.462 34.715 18.1464L37.8709 5.52279C37.8709 5.52279 37.8709 5.20717 37.7131 5.0494ZM33.2948 17.3574L10.2566 20.3555L7.41633 6.15395H35.9773L33.2948 17.3574Z" fill="#00B341"/>
<path d="M13.4136 26.8252C11.2045 26.8252 9.46875 28.561 9.46875 30.7701C9.46875 32.9792 11.2045 34.7149 13.4136 34.7149C15.6228 34.7149 17.3585 32.9791 17.3585 30.7701C17.3585 28.561 15.6228 26.8252 13.4136 26.8252ZM13.4136 33.137C12.1512 33.137 11.0467 32.0324 11.0467 30.7701C11.0467 29.5077 12.1512 28.4031 13.4136 28.4031C14.676 28.4031 15.7805 29.5077 15.7805 30.7701C15.7805 32.0324 14.676 33.137 13.4136 33.137Z" fill="#00B341"/>
<path d="M29.191 26.8252C26.9818 26.8252 25.2461 28.561 25.2461 30.7701C25.2461 32.9792 26.9819 34.7149 29.191 34.7149C31.4001 34.7149 33.1358 32.9791 33.1358 30.7701C33.1358 28.561 31.4 26.8252 29.191 26.8252ZM29.191 33.137C27.9286 33.137 26.824 32.0324 26.824 30.7701C26.824 29.5077 27.9286 28.4031 29.191 28.4031C30.4533 28.4031 31.5579 29.5077 31.5579 30.7701C31.5579 32.0324 30.4533 33.137 29.191 33.137Z" fill="#00B341"/>
</svg>
