<svg width="35" height="38" viewBox="0 0 35 38" fill="none" xmlns="http://www.w3.org/2000/svg">
<path d="M34.1938 0.525237C34.1926 0.502899 34.19 0.480709 34.1862 0.458741C34.1854 0.454081 34.1842 0.449495 34.1834 0.444835C34.1794 0.425308 34.1745 0.406003 34.1684 0.386845C34.1674 0.383517 34.1665 0.380188 34.1654 0.37686C34.1581 0.355187 34.1493 0.333959 34.1393 0.313175C34.1376 0.309698 34.1357 0.306296 34.1339 0.302819C34.1246 0.284697 34.1143 0.267019 34.103 0.249785C34.101 0.246605 34.099 0.243424 34.0969 0.240317C34.0839 0.221456 34.0697 0.20326 34.0541 0.185804C34.0511 0.182476 34.0479 0.179369 34.0448 0.176114C34.0375 0.168348 34.0305 0.16036 34.0227 0.152889C34.016 0.146454 34.0087 0.140758 34.0018 0.134767C33.9993 0.132696 33.9974 0.130255 33.9949 0.128184C33.9935 0.127001 33.9919 0.126187 33.9905 0.125004C33.9722 0.110062 33.9532 0.0963784 33.9336 0.0841C33.9308 0.0823248 33.9277 0.0807715 33.9248 0.0789963C33.9072 0.0684191 33.8891 0.0590253 33.8706 0.0505931C33.8663 0.048596 33.862 0.046525 33.8576 0.0446018C33.8368 0.0357259 33.8155 0.0279594 33.7938 0.0217462C33.7901 0.0206367 33.7863 0.019897 33.7825 0.0188615C33.7639 0.0139797 33.7452 0.0100595 33.7263 0.00710079C33.7208 0.00621319 33.7153 0.00525163 33.7097 0.00451196C33.688 0.0017752 33.6663 0.000147933 33.6444 0C33.6396 0 33.6348 0.000295866 33.6299 0.000369833C33.6114 0.000739666 33.5928 0.0019971 33.5743 0.00421609C33.5688 0.00488179 33.5634 0.00532559 33.558 0.00613923C33.5359 0.00939376 33.5139 0.0139797 33.4921 0.0200449C33.4883 0.0210805 33.4845 0.0224119 33.4807 0.0235953C33.4607 0.0295866 33.441 0.0367614 33.4216 0.0449717C33.4194 0.0459332 33.4169 0.046525 33.4146 0.0475605L9.4618 10.6935C9.18184 10.818 9.05573 11.1457 9.18014 11.4258C9.30455 11.7057 9.63237 11.8318 9.91234 11.7074L30.6042 2.51109L11.4818 19.5088L1.92062 15.2593L7.69718 12.6919C7.97715 12.5674 8.10326 12.2397 7.97885 11.9597C7.85444 11.6798 7.52654 11.5537 7.24665 11.6781L0.329447 14.7523C0.129146 14.8414 0 15.0401 0 15.2593C0 15.4785 0.129146 15.6771 0.329447 15.7663L11.0744 20.5418L12.2588 29.4246C12.2591 29.4272 12.26 29.4295 12.2604 29.432C12.2643 29.4588 12.2699 29.4854 12.2777 29.5116C12.2785 29.5142 12.2796 29.5168 12.2804 29.5194C12.2882 29.5442 12.2979 29.5686 12.3094 29.5923C12.3105 29.5945 12.3114 29.597 12.3126 29.5993C12.3242 29.6227 12.338 29.6452 12.3532 29.6672C12.3562 29.6715 12.3592 29.6756 12.3623 29.6798C12.3779 29.7008 12.3944 29.7213 12.4133 29.7405C12.4323 29.7598 12.4527 29.7768 12.4737 29.7928C12.4779 29.796 12.482 29.7991 12.4863 29.8021C12.5081 29.8177 12.5306 29.8318 12.5539 29.844C12.5558 29.8449 12.5578 29.8457 12.5597 29.8467C12.5833 29.8585 12.6076 29.8685 12.6323 29.8768C12.6353 29.8778 12.6382 29.879 12.6413 29.88C12.6673 29.8882 12.6937 29.8941 12.7204 29.8985C12.7228 29.8988 12.725 29.8997 12.7274 29.9001C12.7303 29.9005 12.7331 29.9003 12.7359 29.9008C12.7601 29.9039 12.7844 29.9062 12.8087 29.9062C12.8088 29.9062 12.8088 29.9062 12.8089 29.9062H12.8089C12.8091 29.9062 12.8092 29.9061 12.8093 29.9061C12.8329 29.9061 12.8564 29.904 12.8798 29.901C12.8854 29.9002 12.891 29.8995 12.8966 29.8986C12.9431 29.8912 12.9888 29.8778 13.0326 29.8584C13.0369 29.8565 13.0411 29.8545 13.0454 29.8525C13.066 29.8428 13.0863 29.8321 13.1058 29.8196C13.1066 29.8191 13.1074 29.8187 13.1082 29.8182C13.1278 29.8056 13.1467 29.7914 13.1649 29.776C13.1696 29.772 13.1741 29.7678 13.1788 29.7636C13.1851 29.7579 13.1917 29.7527 13.1979 29.7467L17.9648 25.0537L25.9353 31.6176C26.036 31.7006 26.1611 31.7442 26.288 31.7442C26.347 31.7442 26.4065 31.7347 26.4641 31.7154C26.6455 31.6547 26.7828 31.5048 26.8274 31.3189L34.1796 0.684117C34.18 0.682638 34.18 0.681158 34.1803 0.679753C34.1856 0.656971 34.1894 0.634042 34.1917 0.610964C34.1922 0.606674 34.1923 0.602384 34.1926 0.598094C34.1942 0.578345 34.1946 0.558522 34.1941 0.538773C34.1939 0.534261 34.1941 0.529749 34.1938 0.525237ZM13.1031 27.3626L12.172 20.3796L29.0257 5.39867L15.44 22.2635C15.4374 22.2667 15.4353 22.2703 15.4328 22.2736C15.4225 22.2869 15.4129 22.3005 15.404 22.3145C15.4006 22.3199 15.3975 22.3253 15.3942 22.3308C15.386 22.3447 15.3785 22.3588 15.3716 22.3733C15.3702 22.3762 15.3683 22.379 15.367 22.3819L13.1031 27.3626ZM14.552 26.8564L16.0777 23.4996L17.1036 24.3444L14.552 26.8564ZM25.9555 30.1969L16.6483 22.5321L32.5252 2.82301L25.9555 30.1969Z" fill="#00B341"/>
<path d="M16.8756 29.5714C16.6591 29.3548 16.3078 29.3547 16.0912 29.5714L11.1898 34.4728C10.9732 34.6895 10.9732 35.0407 11.1898 35.2574C11.2981 35.3657 11.4401 35.4198 11.5821 35.4198C11.724 35.4198 11.866 35.3657 11.9743 35.2573L16.8756 30.3559C17.0923 30.1392 17.0923 29.788 16.8756 29.5714Z" fill="#00B341"/>
<path d="M9.52497 23.4828C9.3084 23.2662 8.95713 23.2662 8.74048 23.4828L3.87733 28.346C3.66068 28.5627 3.66068 28.9139 3.87733 29.1306C3.98562 29.2389 4.12763 29.293 4.26957 29.293C4.41152 29.293 4.55353 29.2388 4.66182 29.1306L9.52497 24.2673C9.74162 24.0506 9.74162 23.6994 9.52497 23.4828Z" fill="#00B341"/>
<path d="M9.52574 29.5716C9.30917 29.355 8.9579 29.355 8.74125 29.5716L1.38905 36.924C1.1724 37.1407 1.1724 37.4919 1.38905 37.7086C1.49734 37.8169 1.63935 37.871 1.78129 37.871C1.92323 37.871 2.06525 37.8169 2.17354 37.7085L9.52574 30.3561C9.74239 30.1394 9.74239 29.7882 9.52574 29.5716Z" fill="#00B341"/>
</svg>
