<svg width="38" height="35" viewBox="0 0 38 35" fill="none" xmlns="http://www.w3.org/2000/svg">
<path d="M37.8708 4.68608C37.8708 4.68194 37.8703 4.67779 37.8702 4.67358C37.8697 4.65708 37.8688 4.64081 37.8669 4.62469C37.8661 4.61877 37.865 4.61285 37.8641 4.60693C37.8619 4.59207 37.8592 4.57742 37.8558 4.56307C37.8544 4.55738 37.8529 4.55176 37.8514 4.54606C37.8471 4.53045 37.8422 4.51514 37.8366 4.50005C37.8356 4.49717 37.8349 4.49421 37.8338 4.4914L36.3289 0.639071C36.1772 0.250895 35.8098 0 35.393 0H32.653C32.3543 0 32.1123 0.242093 32.1123 0.54077C32.1123 0.839447 32.3543 1.08154 32.653 1.08154H35.3407L36.5383 4.14738H25.2159L24.5065 1.08154H28.688C28.9867 1.08154 29.2288 0.839447 29.2288 0.54077C29.2288 0.242093 28.9867 0 28.688 0H23.8263H18.3774H6.81058C6.3937 0 6.02638 0.250895 5.87468 0.639219L4.36983 4.4914C4.36872 4.49428 4.36813 4.49724 4.36702 4.50005C4.3614 4.51507 4.35651 4.53038 4.35222 4.54606C4.35067 4.55176 4.34919 4.55738 4.34786 4.56307C4.34446 4.5775 4.34172 4.59214 4.3395 4.60693C4.33861 4.61285 4.33751 4.61877 4.33677 4.62469C4.33492 4.64081 4.33388 4.65708 4.33344 4.67358C4.33336 4.67772 4.33285 4.68186 4.33277 4.68608C4.33277 4.68674 4.3327 4.68741 4.3327 4.68808V12.6328C4.3327 12.9315 4.57479 13.1736 4.87347 13.1736C5.17214 13.1736 5.41424 12.9315 5.41424 12.6328V5.22892H16.877V13.4487C16.877 13.7701 17.0663 14.063 17.3595 14.1949C17.4668 14.2432 17.5811 14.2668 17.6946 14.2668C17.8911 14.2668 18.0854 14.1963 18.2377 14.0612L21.1018 11.5238L23.9659 14.0611C24.2063 14.2744 24.5512 14.3268 24.8443 14.1949C25.1374 14.063 25.3267 13.7701 25.3267 13.4487V5.22892H36.7894V29.4843C36.7894 29.8723 36.4736 30.1881 36.0856 30.1881H26.1701C26.1701 30.1819 26.1694 30.1758 26.1693 30.1696C26.1687 30.1211 26.167 30.0727 26.1628 30.0246C27.0938 30.2714 28.0886 29.7929 28.4617 28.878C28.6579 28.3967 28.6551 27.8678 28.4535 27.3888C28.4345 27.3437 28.4136 27.2999 28.3915 27.2568C28.3874 27.2488 28.3835 27.2409 28.3795 27.233C28.3578 27.1919 28.3347 27.1517 28.3104 27.1126C28.3056 27.105 28.3008 27.0976 28.2959 27.09C28.2702 27.0499 28.2435 27.0104 28.215 26.9725C28.2145 26.9718 28.2139 26.9711 28.2134 26.9704C28.1851 26.9329 28.1553 26.8968 28.1244 26.8616C28.1188 26.8551 28.1132 26.8486 28.1076 26.8422C28.077 26.8081 28.0453 26.7752 28.0124 26.7435C28.006 26.7373 27.9995 26.7313 27.993 26.7252C27.9586 26.6929 27.9234 26.6615 27.8867 26.6318C27.8854 26.6309 27.8842 26.6299 27.8829 26.6289C27.8468 26.5999 27.8093 26.5723 27.7711 26.5459C27.7642 26.5411 27.7574 26.5362 27.7504 26.5314C27.7121 26.5057 27.6729 26.4814 27.6327 26.4582C27.6294 26.4563 27.6263 26.4541 27.6229 26.4521C27.8515 26.2544 28.0319 26.0041 28.1493 25.716C28.3456 25.2347 28.3427 24.7059 28.1411 24.2268C27.9648 23.8076 27.6548 23.4705 27.2578 23.2613C27.201 23.2314 27.1425 23.2041 27.0824 23.1796L18.6659 19.7478L22.5837 18.5352C23.5157 18.2467 24.0406 17.2526 23.7538 16.3193C23.6468 15.9709 23.4346 15.6771 23.1604 15.4624C22.7525 15.1428 22.2073 14.9985 21.6666 15.112C21.664 15.1126 21.6615 15.1131 21.6589 15.1137C21.629 15.1205 18.6256 15.7958 15.4889 16.4074C15.3498 16.4346 15.2142 16.4607 15.0806 16.4865C14.9736 16.507 14.8681 16.5273 14.7646 16.547C14.7349 16.5527 14.7051 16.5583 14.6756 16.5639C14.4929 16.5986 14.3159 16.6318 14.1438 16.6638C14.0746 16.6767 14.006 16.6894 13.9384 16.7018C9.9992 17.4275 8.89259 17.4405 8.58548 17.3989C8.5843 17.3988 8.58326 17.3986 8.58208 17.3984C8.57742 17.3978 8.57283 17.3971 8.56854 17.3964C8.56543 17.3959 8.56255 17.3954 8.55967 17.3949C8.55759 17.3946 8.55538 17.3942 8.55338 17.3939C8.53422 17.3904 8.51928 17.3868 8.50774 17.3833L8.41913 17.3472L8.52956 17.0764C8.63814 16.8102 8.63652 16.5175 8.52505 16.2525C8.49716 16.1863 8.46321 16.1237 8.42386 16.0654C8.30581 15.8906 8.13887 15.7545 7.93916 15.6731L5.03464 14.4888C4.76843 14.3801 4.47575 14.3818 4.21073 14.4933C3.94563 14.6048 3.73993 14.8128 3.63135 15.079L0.079693 23.7896C-0.144426 24.3392 0.120449 24.9687 0.670094 25.1929L3.57469 26.3772C3.70731 26.4313 3.84452 26.4569 3.97966 26.4569C4.40445 26.4569 4.80786 26.2038 4.97791 25.7868L5.00461 25.7214L5.6743 25.9944C5.67467 25.9945 5.67504 25.9947 5.67549 25.9949C6.31604 26.2561 6.90622 26.6287 7.41703 27.0911C7.50993 27.1752 7.60017 27.2623 7.68767 27.3522C7.77518 27.442 7.85979 27.5348 7.94153 27.6302C7.98236 27.6779 8.02252 27.7264 8.0618 27.7754C8.80612 28.7035 9.78189 29.4316 10.8835 29.8808L11.6369 30.188H6.1181C5.73007 30.188 5.41431 29.8722 5.41431 29.4842V28.1159C5.41431 27.8172 5.17222 27.5751 4.87354 27.5751C4.57486 27.5751 4.33277 27.8172 4.33277 28.1159V29.4842C4.33277 30.4686 5.13361 31.2695 6.1181 31.2695H14.2894L21.2557 34.11C21.4955 34.2078 21.7435 34.2541 21.9879 34.2541C22.7556 34.2541 23.4847 33.7966 23.792 33.0429C23.9181 32.7338 23.9585 32.4107 23.9246 32.1002C24.287 32.1522 24.6626 32.1045 25.0032 31.9574C25.3493 31.8079 25.6361 31.5698 25.8398 31.2694H36.0857C37.0701 31.2694 37.871 30.4686 37.871 29.4841V4.68815C37.8709 4.68741 37.8708 4.68682 37.8708 4.68608ZM18.8073 1.08154H23.3963L24.1057 4.14738H18.0979L18.8073 1.08154ZM16.9878 4.14738H5.66535L6.86295 1.08154H17.6972L16.9878 4.14738ZM24.2453 12.8637H24.2452L21.6444 10.5596C21.4898 10.4226 21.2958 10.3541 21.102 10.3541C20.908 10.3541 20.714 10.4226 20.5593 10.5596L17.9586 12.8637V5.22892H24.2453V12.8637ZM3.97832 25.3738L1.08305 24.1933L4.63093 15.4922L7.5262 16.6728L3.97832 25.3738ZM25.5829 28.6373L24.9622 28.3842C24.9619 28.384 24.9616 28.3839 24.9613 28.3838C24.9611 28.3837 24.9609 28.3836 24.9606 28.3835C24.9606 28.3835 24.9605 28.3834 24.9604 28.3834L18.4968 25.7479C18.2203 25.6352 17.9047 25.7679 17.7919 26.0445C17.6791 26.3211 17.8118 26.6367 18.0885 26.7495L24.5523 29.3851C24.5793 29.3961 24.6054 29.4083 24.6306 29.4217C24.6377 29.4255 24.6443 29.43 24.6512 29.434C24.669 29.444 24.6868 29.4541 24.7036 29.4653C24.7117 29.4706 24.7191 29.4769 24.7269 29.4825C24.7418 29.4931 24.7569 29.5036 24.771 29.5152C24.7795 29.5221 24.7872 29.5299 24.7954 29.5371C24.808 29.5483 24.8208 29.5591 24.8327 29.5709C24.8409 29.5791 24.8482 29.588 24.8561 29.5965C24.8669 29.6082 24.8781 29.6196 24.8883 29.6319C24.8961 29.6413 24.9029 29.6513 24.9103 29.661C24.9195 29.6731 24.9291 29.685 24.9376 29.6976C24.9448 29.7081 24.951 29.7192 24.9576 29.7299C24.9653 29.7423 24.9734 29.7545 24.9805 29.7673C24.9868 29.7789 24.9922 29.7909 24.998 29.8027C25.0042 29.8153 25.0109 29.8278 25.0166 29.8407C25.022 29.8531 25.0263 29.866 25.0311 29.8787C25.036 29.8914 25.0413 29.904 25.0456 29.917C25.0499 29.9301 25.0532 29.9435 25.0568 29.9568C25.0604 29.9699 25.0645 29.9827 25.0675 29.996C25.0706 30.0093 25.0725 30.023 25.0749 30.0364C25.0774 30.0499 25.0802 30.0632 25.0819 30.0768C25.0837 30.0904 25.0844 30.1042 25.0855 30.1179C25.0866 30.1316 25.0882 30.1453 25.0887 30.1591C25.0891 30.1726 25.0885 30.1863 25.0883 30.1999C25.0882 30.2139 25.0884 30.228 25.0875 30.2421C25.0867 30.2555 25.0847 30.2689 25.0832 30.2823C25.0817 30.2967 25.0805 30.3111 25.0781 30.3255C25.076 30.3386 25.0726 30.3517 25.0699 30.3649C25.0668 30.3795 25.0642 30.3941 25.0603 30.4085C25.0569 30.4213 25.0523 30.4341 25.0482 30.4468C25.0436 30.4613 25.0394 30.4758 25.034 30.4901C25.0294 30.4999 25.0249 30.5098 25.0207 30.5198C25.0197 30.5221 25.0192 30.5245 25.0183 30.5267C24.9339 30.7217 24.7779 30.8767 24.5743 30.9646C24.3502 31.0613 24.0936 31.0647 23.8702 30.9736L22.725 30.5066C22.7197 30.5045 22.7143 30.503 22.709 30.501C22.7036 30.4986 22.6985 30.4958 22.693 30.4935L17.4357 28.3499C17.159 28.2372 16.8436 28.3699 16.7308 28.6465C16.618 28.9231 16.7508 29.2387 17.0274 29.3515L22.2846 31.4951C22.2902 31.4974 22.2959 31.499 22.3016 31.5011C22.3067 31.5033 22.3115 31.5061 22.3167 31.5081C22.7579 31.6881 22.9706 32.1934 22.7907 32.6346C22.6107 33.076 22.1056 33.2887 21.6642 33.1086L14.6007 30.2285C14.6004 30.2284 14.6001 30.2282 14.5998 30.2281L11.2921 28.8793C10.7098 28.6419 10.1691 28.3123 9.6918 27.9069C9.4054 27.6636 9.14186 27.3932 8.90576 27.0988C8.67313 26.8087 8.41795 26.5382 8.14338 26.2896C7.5393 25.7428 6.84142 25.3022 6.08408 24.9933C6.084 24.9933 6.08393 24.9932 6.08386 24.9932L5.41327 24.7199L6.74889 21.4442L8.01105 18.3488L8.10418 18.3868C8.19183 18.4225 8.31683 18.4732 8.65323 18.4859C9.07351 18.505 9.7688 18.4611 11.0144 18.2851C11.8617 18.1655 12.901 17.9924 14.1143 17.7691C14.1441 17.7637 14.1738 17.7582 14.204 17.7526C14.2607 17.7421 14.318 17.7315 14.3756 17.7208C14.4203 17.7126 14.4653 17.7041 14.5106 17.6956C14.5623 17.6859 14.6141 17.6762 14.6663 17.6664C14.7217 17.656 14.7778 17.6454 14.8342 17.6347C14.8793 17.6261 14.9243 17.6176 14.9699 17.6089C15.0386 17.5958 15.1085 17.5824 15.1786 17.569C15.2147 17.562 15.2505 17.5552 15.2869 17.5483C15.3942 17.5276 15.5031 17.5066 15.6139 17.485C18.7398 16.877 21.7569 16.2003 21.8924 16.1698C21.906 16.167 21.9195 16.1654 21.933 16.1634C22.2804 16.112 22.6207 16.3129 22.7203 16.637C22.7553 16.7509 22.7594 16.8671 22.7374 16.9764C22.6889 17.2171 22.5141 17.4247 22.2641 17.502L16.9029 19.1613C16.6846 19.2289 16.5324 19.4262 16.5225 19.6545C16.5126 19.8827 16.6471 20.0925 16.8586 20.1787L26.6743 24.1812C26.8881 24.2683 27.0551 24.4335 27.1446 24.6463C27.2341 24.8591 27.2354 25.094 27.1482 25.3077C27.061 25.5214 26.8959 25.6884 26.6831 25.7779C26.5767 25.8226 26.4648 25.8453 26.3528 25.8459C26.3511 25.8459 26.3495 25.8457 26.3479 25.8457C26.3216 25.8457 26.2953 25.8447 26.269 25.8422C26.2613 25.8415 26.2536 25.8399 26.2458 25.839C26.2258 25.8365 26.2057 25.8342 26.1858 25.8304C26.1733 25.8279 26.1608 25.8242 26.1483 25.8213C26.1334 25.8177 26.1184 25.8147 26.1036 25.8103C26.0883 25.8058 26.0732 25.7998 26.0582 25.7944C26.0462 25.7901 26.034 25.7866 26.0221 25.7818L19.5578 23.1459C19.2812 23.0331 18.9657 23.1659 18.8529 23.4425C18.7401 23.7191 18.8728 24.0347 19.1495 24.1475L26.9866 27.3431C27.0401 27.3648 27.0906 27.3915 27.1377 27.4226C27.2791 27.5158 27.3898 27.6486 27.4569 27.8082C27.5352 27.9944 27.546 28.1975 27.489 28.3885C27.4809 28.4158 27.4714 28.4429 27.4605 28.4696C27.4493 28.4972 27.4368 28.5239 27.4231 28.5496C27.3912 28.6095 27.3524 28.6637 27.309 28.713C27.2821 28.7436 27.2533 28.7722 27.2227 28.7984C27.2178 28.8025 27.2134 28.8072 27.2084 28.8112C27.0111 28.9726 26.7472 29.042 26.4895 28.9899C26.4372 28.9794 26.3852 28.9643 26.334 28.9435L25.5829 28.6373Z" fill="#00B341"/>
</svg>
