<svg width="32" height="37" viewBox="0 0 32 37" fill="none" xmlns="http://www.w3.org/2000/svg">
<path d="M2.61517 11.3503H21.7477C21.9046 11.3501 22.055 11.2877 22.166 11.1768C22.2769 11.0658 22.3393 10.9154 22.3395 10.7585V3.4306C22.3393 3.27372 22.2769 3.12331 22.166 3.01238C22.055 2.90144 21.9046 2.83904 21.7477 2.83887H2.61517C2.45829 2.83904 2.30788 2.90144 2.19695 3.01238C2.08601 3.12331 2.02361 3.27372 2.02344 3.4306V10.7585C2.02361 10.9154 2.08601 11.0658 2.19695 11.1768C2.30788 11.2877 2.45829 11.3501 2.61517 11.3503ZM2.91104 3.72647H21.4519V10.4627H2.91104V3.72647Z" fill="#00B341"/>
<path d="M24.459 19.2063V1.98637C24.4597 1.46095 24.2519 0.95673 23.8812 0.58434C23.5105 0.21195 23.0073 0.00180177 22.4818 0H1.9772C1.45179 0.00182129 0.948547 0.211976 0.577881 0.584362C0.207215 0.956747 -0.000609032 1.46095 1.34069e-06 1.98637V34.3892C-0.000609032 34.9146 0.207215 35.4188 0.577881 35.7912C0.948547 36.1636 1.45179 36.3738 1.9772 36.3756H22.4818C22.5004 36.3754 22.5189 36.3742 22.5372 36.3718C22.7324 36.3845 22.9293 36.3916 23.1276 36.3916C27.9942 36.3916 31.9536 32.5149 31.9536 27.7498C31.9536 23.4278 28.6962 19.8368 24.459 19.2063ZM1.9772 35.488C1.68711 35.4864 1.40947 35.3699 1.2052 35.1639C1.00094 34.9579 0.886715 34.6793 0.8876 34.3892V1.98637C0.886715 1.69628 1.00094 1.41767 1.2052 1.21169C1.40947 1.0057 1.68711 0.889145 1.9772 0.887599H22.4818C22.7719 0.889145 23.0496 1.0057 23.2538 1.21169C23.4581 1.41767 23.5723 1.69628 23.5714 1.98637V19.119C23.4244 19.1118 23.2765 19.1082 23.1276 19.1081C22.8888 19.1081 22.6523 19.1174 22.4181 19.136V13.6377C22.418 13.4792 22.3551 13.3273 22.2432 13.2152C22.1312 13.1031 21.9794 13.04 21.821 13.0396H2.33165C2.17321 13.0399 2.02136 13.1031 1.9094 13.2152C1.79744 13.3273 1.73452 13.4792 1.73444 13.6377V33.6234C1.7345 33.7819 1.79741 33.9338 1.90937 34.046C2.02133 34.1581 2.1732 34.2212 2.33165 34.2215H14.8155C14.9128 34.2572 15.0196 34.2572 15.1168 34.2215H17.286C17.867 34.7248 18.511 35.1505 19.2017 35.4878L1.9772 35.488ZM8.89655 33.3341V29.2576H14.4366C14.5171 29.7026 14.6332 30.1404 14.7839 30.5668C14.7062 30.6019 14.6402 30.6587 14.5939 30.7304C14.5476 30.802 14.523 30.8855 14.5229 30.9708V33.3339L8.89655 33.3341ZM2.62204 33.3341V29.2576H8.00895V33.3341H2.62204ZM14.8117 13.9272V18.1183H8.89655V13.9272H14.8117ZM21.5306 13.9272V18.1183H15.6992V13.9272H21.5306ZM14.3016 27.7498C14.3016 27.9583 14.3096 28.1651 14.3245 28.37H8.89655V24.0546H14.8116V24.8549C14.4736 25.7826 14.301 26.7624 14.3016 27.7498ZM2.62204 19.0059H8.00895V23.167H2.62204V19.0059ZM2.62204 24.0546H8.00895V28.37H2.62204V24.0546ZM8.89655 23.167V19.0059H14.8116V23.167H8.89655ZM8.00895 18.1183H2.62204V13.9272H8.00895V18.1183ZM15.4101 31.9388C15.6926 32.4353 16.0234 32.9027 16.3976 33.3343H15.4101V31.9388ZM15.6992 23.0879V19.0059H21.5304V19.25C20.3491 19.4612 19.2231 19.9103 18.2207 20.57C17.2183 21.2297 16.3604 22.0862 15.6992 23.0876V23.0879ZM23.1276 35.504C18.7503 35.504 15.1892 32.0255 15.1892 27.7498C15.1892 23.4742 18.7505 19.9957 23.1276 19.9957C27.5046 19.9957 31.066 23.4742 31.066 27.7498C31.066 32.0255 27.5048 35.504 23.1276 35.504Z" fill="#00B341"/>
<path d="M23.6998 23.3216V22.69C23.6998 22.5723 23.6531 22.4594 23.5699 22.3761C23.4866 22.2929 23.3738 22.2462 23.256 22.2462C23.1383 22.2462 23.0255 22.2929 22.9422 22.3761C22.859 22.4594 22.8122 22.5723 22.8122 22.69V23.3226C22.3632 23.3813 21.9448 23.5824 21.6184 23.8964C20.9544 24.5436 20.9153 25.4508 20.9191 25.7134C20.9339 26.7333 21.7087 27.5938 22.8031 27.8061L22.9024 27.8255C22.9853 27.8417 23.0867 27.8616 23.1489 27.8735C23.187 27.8809 23.2758 27.9073 23.3231 27.9214C23.3392 27.9262 23.3549 27.932 23.3703 27.9385C23.3762 27.9411 23.3821 27.9435 23.3881 27.9459L23.5407 28.0041C23.5559 28.0099 23.5709 28.0165 23.5854 28.0238C23.6589 28.0608 23.6768 28.0715 23.7302 28.1025C23.7524 28.1153 23.7784 28.1305 23.8098 28.1484L23.8276 28.1596C23.8325 28.1628 23.8381 28.1663 23.8444 28.1701C24.005 28.267 24.8082 28.7891 24.8402 29.5507C24.8593 30.0064 24.742 30.3546 24.4814 30.6152C24.1222 30.9744 23.514 31.1162 23.0707 31.0977C22.1359 31.0584 21.584 30.3002 21.5375 29.8867C21.5314 29.8285 21.5138 29.772 21.4858 29.7206C21.4578 29.6692 21.4198 29.6239 21.3742 29.5872C21.3286 29.5505 21.2762 29.5233 21.22 29.5069C21.1638 29.4906 21.1049 29.4855 21.0467 29.4921C20.9885 29.4986 20.9322 29.5165 20.881 29.5449C20.8298 29.5733 20.7847 29.6115 20.7484 29.6574C20.712 29.7033 20.6851 29.7559 20.6691 29.8122C20.6532 29.8685 20.6485 29.9274 20.6555 29.9856C20.7841 31.1326 21.9241 31.8301 22.8122 31.9626V32.5018C22.8122 32.6195 22.8589 32.7324 22.9422 32.8157C23.0254 32.8989 23.1383 32.9456 23.256 32.9456C23.3737 32.9456 23.4866 32.8989 23.5698 32.8157C23.653 32.7324 23.6998 32.6195 23.6998 32.5018V31.9364C24.1892 31.8488 24.7136 31.6383 25.1091 31.2428C25.5427 30.8092 25.7563 30.2112 25.727 29.5134C25.6773 28.3315 24.6291 27.6073 24.3013 27.4092C24.2962 27.4059 24.2643 27.3861 24.2582 27.3825C24.2229 27.3623 24.1972 27.3474 24.1759 27.3351C24.1129 27.2984 24.0785 27.2788 23.9866 27.2322C23.9444 27.2108 23.9011 27.1916 23.8568 27.1748L23.712 27.1196C23.6681 27.1011 23.6233 27.085 23.5777 27.0713C23.4828 27.043 23.3913 27.0163 23.3148 27.0017C23.2538 26.9901 23.1543 26.9706 23.073 26.9546L22.9722 26.935C22.1771 26.7807 21.8138 26.204 21.8065 25.7008C21.8013 25.3442 21.9119 24.8501 22.2378 24.5321C22.4974 24.2791 22.8725 24.1606 23.3524 24.18C24.669 24.2332 24.9707 25.3408 24.9845 25.3943C25.0129 25.508 25.0851 25.6058 25.1854 25.6665C25.2857 25.7271 25.4059 25.7456 25.5198 25.718C25.6336 25.6903 25.732 25.6188 25.7933 25.5189C25.8546 25.419 25.8739 25.299 25.847 25.1849C25.7118 24.6977 25.436 24.2612 25.0541 23.9298C24.6722 23.5985 24.2012 23.3869 23.6998 23.3216Z" fill="#00B341"/>
</svg>
