<svg width="38" height="38" viewBox="0 0 38 38" fill="none" xmlns="http://www.w3.org/2000/svg">
<path d="M17.4031 25.6861C17.6918 25.3968 17.6918 24.9288 17.4031 24.6395C17.1142 24.3512 16.6461 24.3512 16.3569 24.6395C16.0685 24.9288 16.0685 25.3968 16.3569 25.6861C16.6461 25.9744 17.1142 25.9744 17.4031 25.6861Z" fill="#00B341"/>
<path d="M13.9023 8.13401C13.9023 12.6191 17.5513 16.2683 22.0364 16.2683C26.5214 16.2683 30.1704 12.6191 30.1704 8.13401C30.1704 3.64892 26.5214 0 22.0364 0C17.5513 0 13.9023 3.64892 13.9023 8.13401ZM28.6916 8.13401C28.6916 11.8037 25.7061 14.7893 22.0364 14.7893C18.3666 14.7893 15.3811 11.8037 15.3811 8.13401C15.3811 4.46458 18.3666 1.47904 22.0364 1.47904C25.7061 1.47904 28.6916 4.46458 28.6916 8.13401Z" fill="#00B341"/>
<path d="M8.51735 37.6522C8.80397 37.9411 9.2706 37.9443 9.56097 37.6582L13.146 34.1263C13.7551 33.5173 13.9403 32.6155 13.6725 31.8316L14.4436 31.0879C14.8588 30.6869 15.4055 30.4658 15.9834 30.4658H25.8137C27.5577 30.4658 29.206 29.7961 30.4557 28.58C30.5071 28.53 30.0653 29.0504 37.1621 20.5685C38.2146 19.3232 38.0572 17.4532 36.8107 16.3995C35.5721 15.3556 33.7165 15.5055 32.6611 16.7294L28.2976 21.2142C27.7466 20.5361 26.9064 20.1134 25.9986 20.1134H17.7528C16.5794 19.6225 15.3344 19.374 14.0498 19.374C10.489 19.374 7.37983 21.0186 5.71125 24.1021C5.00827 23.9689 4.26687 24.1816 3.73351 24.7149L0.21576 28.2431C-0.0714379 28.5312 -0.0720158 28.9972 0.214605 29.2861L8.51735 37.6522ZM14.0495 20.8528C15.1821 20.8528 16.2772 21.0808 17.3049 21.5303C17.3985 21.5714 17.4994 21.5925 17.6014 21.5925H25.9986C26.8004 21.5925 27.4776 22.2463 27.4776 23.0712C27.4776 23.8869 26.8143 24.5503 25.9986 24.5503H19.9654C19.5572 24.5503 19.226 24.8814 19.226 25.2896C19.226 25.6982 19.5572 26.029 19.9654 26.029H25.9986C27.6296 26.029 28.9564 24.7022 28.9564 23.0712C28.9564 22.9412 28.9471 22.8123 28.9304 22.6846C33.1514 18.3457 33.7466 17.7361 33.772 17.7057C34.299 17.0837 35.2346 17.0048 35.857 17.5295C36.4799 18.0562 36.5588 18.9912 36.0303 19.6167L29.3979 27.5456C28.4294 28.4754 27.1578 28.9871 25.8137 28.9871H15.9834C15.0201 28.9871 14.1082 29.3555 13.4165 30.0238L12.7881 30.6303L6.99497 24.8375C8.3489 22.2975 10.8895 20.8528 14.0495 20.8528ZM4.78002 25.76C5.02388 25.5162 5.39833 25.4722 5.69564 25.656C5.82364 25.734 5.45612 25.3994 12.1004 32.0345C12.396 32.33 12.3801 32.801 12.1044 33.0766L9.04812 36.0876L1.78235 28.7664L4.78002 25.76Z" fill="#00B341"/>
<path d="M21.1474 3.69743V4.56394C20.2867 4.86905 19.6684 5.69106 19.6684 6.65523C19.6684 7.87827 20.6634 8.87365 21.8868 8.87365C22.2945 8.87365 22.6262 9.20534 22.6262 9.61302C22.6262 10.0207 22.2945 10.3524 21.8868 10.3524C21.571 10.3524 21.2297 10.1539 20.9267 9.79303C20.6637 9.4804 20.1974 9.44024 19.8848 9.70288C19.5721 9.96581 19.5317 10.4321 19.7946 10.7448C20.1899 11.2149 20.6548 11.5425 21.1474 11.7078V12.5708C21.1474 12.9794 21.4785 13.3102 21.8868 13.3102C22.295 13.3102 22.6262 12.9794 22.6262 12.5708V11.7043C23.4869 11.3989 24.1052 10.5769 24.1052 9.61302C24.1052 8.38968 23.1101 7.3946 21.8868 7.3946C21.4791 7.3946 21.1474 7.06291 21.1474 6.65523C21.1474 6.24754 21.4791 5.91556 21.8868 5.91556C22.1488 5.91556 22.4254 6.04934 22.6865 6.30215C22.9801 6.58617 23.4482 6.57837 23.7322 6.2851C24.0162 5.99155 24.0084 5.52348 23.7151 5.23946C23.3398 4.87627 22.9642 4.67084 22.6262 4.55874V3.69743C22.6262 3.28888 22.295 2.95776 21.8868 2.95776C21.4785 2.95776 21.1474 3.28888 21.1474 3.69743Z" fill="#00B341"/>
</svg>
