<svg width="24" height="21" viewBox="0 0 24 21" fill="none" xmlns="http://www.w3.org/2000/svg">
<path d="M22.8376 13.2553C22.4454 13.2553 22.127 13.5736 22.127 13.9658V18.9397H2.23165V10.4131H10.0477C10.4399 10.4131 10.7582 10.0948 10.7582 9.70255C10.7582 9.31033 10.4399 8.992 10.0477 8.992H2.23165V6.14981H10.0477C10.4399 6.14981 10.7582 5.83148 10.7582 5.43926C10.7582 5.04703 10.4399 4.72871 10.0477 4.72871H2.23165C1.4472 4.72871 0.810547 5.36536 0.810547 6.14981V18.9397C0.810547 19.7241 1.4472 20.3608 2.23165 20.3608H22.127C22.9115 20.3608 23.5481 19.7241 23.5481 18.9397V13.9658C23.5481 13.5736 23.2298 13.2553 22.8376 13.2553Z" fill="#E8712D"/>
<path d="M7.20509 13.2553H4.36289C3.97067 13.2553 3.65234 13.5736 3.65234 13.9658C3.65234 14.3581 3.97067 14.6764 4.36289 14.6764H7.20509C7.59731 14.6764 7.91564 14.3581 7.91564 13.9658C7.91564 13.5736 7.59731 13.2553 7.20509 13.2553Z" fill="#E8712D"/>
<path d="M23.1179 2.6539L18.144 0.522248C17.9636 0.44693 17.7632 0.44693 17.5827 0.522248L12.6089 2.6539C12.3488 2.76616 12.1797 3.02338 12.1797 3.3076V6.1498C12.1797 10.0592 13.6249 12.3444 17.5102 14.5826C17.6197 14.6451 17.7419 14.6764 17.8641 14.6764C17.9863 14.6764 18.1085 14.6451 18.2179 14.5826C22.1032 12.3501 23.5485 10.0649 23.5485 6.1498V3.3076C23.5485 3.02338 23.3794 2.76616 23.1179 2.6539ZM22.1274 6.1498C22.1274 9.43112 21.0417 11.2373 17.8641 13.1416C14.6865 11.2331 13.6008 9.42685 13.6008 6.1498V3.77656L17.8641 1.94903L22.1274 3.77656V6.1498Z" fill="#E8712D"/>
<path d="M20.4396 4.8836C20.1341 4.64201 19.6879 4.68891 19.4406 4.99445L17.2066 7.78833L16.3227 6.4667C16.1024 6.13985 15.6605 6.05316 15.3379 6.26917C15.0125 6.4866 14.9229 6.92856 15.1404 7.25399L16.5615 9.38564C16.6879 9.57465 16.8954 9.69118 17.1228 9.70255C17.1327 9.70255 17.1441 9.70255 17.1526 9.70255C17.3672 9.70255 17.5719 9.60591 17.7083 9.43538L20.5505 5.88263C20.7949 5.57568 20.7466 5.12945 20.4396 4.8836Z" fill="#E8712D"/>
</svg>
