<svg width="17" height="22" viewBox="0 0 17 22" fill="none" xmlns="http://www.w3.org/2000/svg">
<path d="M8.36673 10.7594C10.8128 10.7594 12.7958 8.35089 12.7958 5.37976C12.7958 2.40856 12.1448 0 8.36673 0C4.5887 0 3.9375 2.40856 3.9375 5.37976C3.9375 8.35089 5.92058 10.7594 8.36673 10.7594Z" fill="white"/>
<path d="M16.7324 19.1151C16.7348 19.0655 16.7332 18.771 16.7324 19.1151V19.1151Z" fill="white"/>
<path d="M16.7217 18.7564C16.6397 13.5806 15.9637 12.1058 10.791 11.1722C10.791 11.1722 10.0629 12.1001 8.36572 12.1001C6.66858 12.1001 5.94031 11.1722 5.94031 11.1722C0.824057 12.0956 0.106983 13.5486 0.0126971 18.5883C0.00496569 18.9998 0.00138286 19.0214 0 18.9736C0.000314286 19.0631 0.000691289 19.2287 0.000691289 19.5174C0.000691289 19.5174 1.23219 22 8.36572 22C15.4991 22 16.7308 19.5174 16.7308 19.5174C16.7308 19.3319 16.7309 19.2029 16.7311 19.1152C16.7297 19.1447 16.7269 19.0875 16.7217 18.7564Z" fill="white"/>
</svg>
