<svg width="22" height="21" viewBox="0 0 22 21" fill="none" xmlns="http://www.w3.org/2000/svg">
<path d="M4.92406 21C4.68303 21 4.44367 20.9251 4.2394 20.778C3.85888 20.5033 3.68113 20.0311 3.78469 19.5755L5.20001 13.3656L0.400147 9.17285C0.0473249 8.86606 -0.0874593 8.38021 0.057396 7.93565C0.202251 7.49193 0.596365 7.17778 1.06299 7.13481L7.41379 6.56051L9.92467 0.707713C10.1098 0.277702 10.5315 0 10.9999 0C11.4684 0 11.89 0.277702 12.0752 0.70671L14.5861 6.56051L20.9359 7.13481C21.4035 7.17678 21.7976 7.49193 21.9425 7.93565C22.0873 8.37937 21.9534 8.86606 21.6005 9.17285L16.8007 13.3648L18.216 19.5745C18.3197 20.0311 18.1418 20.5033 17.7615 20.7771C17.382 21.051 16.8759 21.0721 16.4762 20.8328L10.9999 17.5731L5.52363 20.8347C5.33849 20.9442 5.1322 21 4.92406 21ZM10.9999 16.1689C11.2081 16.1689 11.4142 16.2246 11.5995 16.3341L16.7678 19.413L15.432 13.5519C15.3367 13.1347 15.4789 12.6992 15.8025 12.417L20.3346 8.45795L14.3385 7.91559C13.9068 7.8763 13.5355 7.60595 13.3668 7.20971L10.9999 1.68644L8.63021 7.21055C8.46336 7.60411 8.09208 7.87446 7.66137 7.91375L1.6644 8.45611L6.19637 12.4152C6.52099 12.6982 6.663 13.1329 6.56682 13.551L5.23207 19.412L10.4004 16.3341C10.5855 16.2246 10.7918 16.1689 10.9999 16.1689ZM7.36528 6.6737C7.36528 6.6737 7.36528 6.67471 7.36428 6.67554L7.36528 6.6737ZM14.6327 6.67103L14.6337 6.67287C14.6337 6.67186 14.6337 6.67186 14.6327 6.67103Z" fill="#E8712D"/>
</svg>
