<svg width="23" height="23" viewBox="0 0 23 23" fill="none" xmlns="http://www.w3.org/2000/svg">
<path d="M21.5177 11.6634C21.4262 11.4763 21.4262 11.2616 21.5177 11.0744L22.3658 9.33959C22.8379 8.37364 22.4638 7.22233 21.5141 6.71842L19.8083 5.81335C19.6243 5.71574 19.4981 5.54201 19.4621 5.33689L19.1285 3.43488C18.9427 2.37589 17.9631 1.66428 16.8988 1.81487L14.9868 2.08532C14.7805 2.11446 14.5764 2.04811 14.4267 1.90329L13.0389 0.560707C12.2661 -0.18688 11.0555 -0.186924 10.2828 0.560707L8.89489 1.90342C8.74515 2.04829 8.54109 2.1145 8.33476 2.08546L6.4228 1.815C5.35809 1.66432 4.37886 2.37603 4.1931 3.43501L3.8595 5.33693C3.82348 5.5421 3.69731 5.71579 3.51333 5.81344L1.80756 6.71851C0.857825 7.22237 0.483721 8.37378 0.955881 9.33972L1.80388 11.0745C1.89536 11.2617 1.89536 11.4764 1.80388 11.6635L0.955837 13.3983C0.483677 14.3643 0.857781 15.5156 1.80752 16.0195L3.51328 16.9246C3.69731 17.0222 3.82348 17.1959 3.8595 17.401L4.1931 19.303C4.36221 20.2671 5.18885 20.9432 6.1389 20.9431C6.23247 20.9431 6.32741 20.9365 6.42285 20.923L8.3348 20.6526C8.541 20.6233 8.74519 20.6898 8.89494 20.8346L10.2828 22.1772C10.6692 22.551 11.1649 22.7379 11.6608 22.7378C12.1565 22.7378 12.6525 22.5509 13.0388 22.1772L14.4267 20.8346C14.5764 20.6898 14.7806 20.6236 14.9868 20.6526L16.8988 20.923C17.9636 21.0736 18.9427 20.362 19.1285 19.303L19.4621 17.4011C19.4982 17.1959 19.6243 17.0222 19.8083 16.9246L21.5141 16.0195C22.4638 15.5156 22.8379 14.3642 22.3658 13.3983L21.5177 11.6634ZM20.8994 14.861L19.1936 15.7661C18.6498 16.0547 18.2768 16.568 18.1705 17.1744L17.8368 19.0764C17.774 19.4347 17.4428 19.6753 17.0825 19.6245L15.1705 19.354C14.5608 19.2677 13.9574 19.4639 13.5149 19.892L12.127 21.2345C11.8656 21.4874 11.456 21.4874 11.1945 21.2345L9.80671 19.8919C9.43269 19.5301 8.94375 19.334 8.4333 19.334C8.33978 19.334 8.2455 19.3406 8.15108 19.354L6.23913 19.6244C5.87915 19.6753 5.54763 19.4346 5.48475 19.0763L5.1511 17.1743C5.04469 16.5679 4.67174 16.0545 4.12786 15.766L2.4221 14.861C2.10075 14.6905 1.97419 14.301 2.13393 13.9741L2.98197 12.2393C3.25233 11.6861 3.25233 11.0517 2.98197 10.4985L2.13393 8.76369C1.97419 8.43688 2.10075 8.04737 2.4221 7.87688L4.12786 6.97182C4.6717 6.6832 5.04469 6.16992 5.15105 5.56346L5.48466 3.6615C5.54754 3.30321 5.87875 3.06251 6.23904 3.1134L8.15099 3.38385C8.76051 3.47014 9.36408 3.27398 9.80662 2.84592L11.1945 1.50334C11.4559 1.25047 11.8655 1.25047 12.127 1.50334L13.5148 2.84592C13.9573 3.27403 14.5608 3.47014 15.1704 3.38385L17.0824 3.1134C17.4424 3.06246 17.7739 3.30321 17.8368 3.6615L18.1704 5.56351C18.2768 6.16996 18.6497 6.68329 19.1936 6.97182L20.8994 7.87688C21.2207 8.04737 21.3473 8.43688 21.1875 8.76369L20.3395 10.4985C20.0691 11.0516 20.0691 11.6861 20.3395 12.2393L21.1875 13.9741C21.3473 14.301 21.2208 14.6905 20.8994 14.861Z" fill="#E8712D"/>
<path d="M9.03709 5.46758C7.71138 5.46758 6.63281 6.54615 6.63281 7.87186C6.63281 9.19757 7.71138 10.2761 9.03709 10.2761C10.3628 10.2761 11.4414 9.19757 11.4414 7.87186C11.4414 6.54615 10.3628 5.46758 9.03709 5.46758ZM9.03709 8.96469C8.4345 8.96469 7.94426 8.47445 7.94426 7.87182C7.94426 7.26923 8.4345 6.77899 9.03709 6.77899C9.63968 6.77899 10.13 7.26923 10.13 7.87182C10.1299 8.47445 9.63968 8.96469 9.03709 8.96469Z" fill="#E8712D"/>
<path d="M16.452 6.57781C16.196 6.32175 15.7807 6.32175 15.5247 6.57781L6.86978 15.2327C6.61372 15.4888 6.61372 15.904 6.86978 16.1601C6.99781 16.2881 7.16564 16.3521 7.33342 16.3521C7.50119 16.3521 7.66906 16.2881 7.79705 16.1601L16.4519 7.50517C16.7081 7.24906 16.7081 6.83392 16.452 6.57781Z" fill="#E8712D"/>
<path d="M14.2832 12.4618C12.9575 12.4618 11.8789 13.5404 11.8789 14.8661C11.8789 16.1918 12.9575 17.2703 14.2832 17.2703C15.6089 17.2703 16.6875 16.1918 16.6875 14.8661C16.6875 13.5404 15.6089 12.4618 14.2832 12.4618ZM14.2832 15.9589C13.6806 15.9589 13.1903 15.4687 13.1903 14.8661C13.1903 14.2635 13.6805 13.7732 14.2832 13.7732C14.8858 13.7732 15.376 14.2635 15.376 14.8661C15.376 15.4687 14.8858 15.9589 14.2832 15.9589Z" fill="#E8712D"/>
</svg>
