<svg width="19" height="19" viewBox="0 0 19 19" fill="none" xmlns="http://www.w3.org/2000/svg">
<path d="M12.6885 2.17382C9.78983 -0.724607 5.07211 -0.724607 2.17349 2.17382C-0.724498 5.07288 -0.724498 9.78965 2.17349 12.6887C4.75479 15.2692 8.77503 15.5457 11.6718 13.5307C11.7327 13.8191 11.8722 14.0943 12.0965 14.3186L16.3179 18.5396C16.933 19.1535 17.9271 19.1535 18.5391 18.5396C19.1536 17.9251 19.1536 16.9311 18.5391 16.3185L14.3178 12.0962C14.0947 11.8738 13.8189 11.7337 13.5305 11.6727C15.5469 8.77555 15.2704 4.7562 12.6885 2.17382ZM11.3557 11.356C9.19163 13.52 5.66968 13.52 3.50624 11.356C1.34343 9.19212 1.34343 5.67103 3.50624 3.50711C5.66968 1.34381 9.19163 1.34381 11.3557 3.50711C13.5198 5.67103 13.5198 9.19212 11.3557 11.356Z" fill="white"/>
</svg>
