<svg width="19" height="23" viewBox="0 0 19 23" fill="none" xmlns="http://www.w3.org/2000/svg">
<path d="M17.422 10.4623V7.02706C17.422 3.15223 14.3877 0 10.6583 0H8.3417C4.61209 0 1.57801 3.15223 1.57801 7.02706V10.4623C0.646541 10.918 0 11.9023 0 13.0409V14.4891C0 16.06 1.23008 17.338 2.74206 17.338H4.6707C5.14243 17.338 5.52634 16.9391 5.52634 16.449V11.0809C5.52634 10.7322 5.3316 10.4307 5.04971 10.2851V7.02706C5.04971 5.14106 6.52638 3.60688 8.3417 3.60688H10.6583C12.4734 3.60688 13.9503 5.14106 13.9503 7.02706V10.2851C13.6684 10.4307 13.4737 10.7322 13.4737 11.0809V16.449C13.4737 16.9391 13.8574 17.338 14.3291 17.338H15.09V19.1257C15.09 19.9474 14.4465 20.6162 13.6554 20.6162H11.8904V20.2924C11.8904 19.9132 11.5945 19.6058 11.2293 19.6058H8.77847C8.07399 19.6058 7.50076 20.2014 7.50076 20.9333V21.6724C7.50076 22.4044 8.07399 23 8.77847 23H11.2293C11.5945 23 11.8904 22.6926 11.8904 22.3132V21.9896H13.6554C15.1753 21.9896 16.4118 20.7048 16.4118 19.1257V17.3332C17.8525 17.2499 19 16.0063 19 14.4891V13.0409C18.9998 11.9023 18.3535 10.918 17.422 10.4623ZM10.5684 21.6266H8.82255V20.9791H10.5684V21.6266ZM4.20438 15.9647H2.74206C1.95905 15.9647 1.32179 15.3026 1.32179 14.4891V13.0409C1.32179 12.2273 1.95905 11.5654 2.74206 11.5654H4.20438V15.9647ZM10.6583 2.23362H8.3417C5.79759 2.23362 3.72791 4.38389 3.72791 7.02706V10.1921H2.89981V7.02706C2.89981 3.90958 5.34106 1.37327 8.3417 1.37327H10.6583C13.6589 1.37327 16.1002 3.90958 16.1002 7.02706V10.1921H15.2721V7.02706C15.2721 4.38389 13.2024 2.23362 10.6583 2.23362ZM17.678 14.4891C17.678 15.3026 17.041 15.9645 16.2579 15.9645H14.7955V11.5654H16.2579C17.041 11.5654 17.678 12.2273 17.678 13.0408V14.4891Z" fill="#E8712D"/>
</svg>
