<svg width="23" height="23" viewBox="0 0 23 23" fill="none" xmlns="http://www.w3.org/2000/svg">
<path d="M12.3116 7.00498H11.7143L10.8313 5.14324C10.6826 4.82969 10.3666 4.62978 10.0195 4.62978H8.16244C7.81537 4.62978 7.49939 4.82964 7.35065 5.14324L6.46767 7.00498H5.87039C5.37418 7.00498 4.97195 7.40721 4.97195 7.90342V12.6539C4.97195 13.1501 5.37418 13.5523 5.87039 13.5523H12.3116C12.8078 13.5523 13.21 13.1501 13.21 12.6539V7.90342C13.21 7.40721 12.8078 7.00498 12.3116 7.00498ZM8.73074 6.42666H9.45133L9.72563 7.00498H8.45649L8.73074 6.42666ZM11.4132 11.7554H6.76882V8.80182H11.4132V11.7554ZM22.7368 19.0522L19.3228 15.6381C18.9719 15.2872 18.403 15.2872 18.0522 15.6381L17.4804 16.2099L16.1202 14.8496C17.408 13.2806 18.182 11.2745 18.182 9.09102C18.182 4.07819 14.1038 0 9.09101 0C4.07823 0 0 4.07819 0 9.09102C0 14.1039 4.07819 18.182 9.09101 18.182C11.2745 18.182 13.2806 17.408 14.8496 16.1202L16.2099 17.4805L15.6381 18.0522C15.2872 18.4031 15.2872 18.972 15.6381 19.3228L19.0522 22.7369C19.403 23.0877 19.9719 23.0877 20.3227 22.7369L22.7368 20.3228C23.0877 19.9719 23.0877 19.403 22.7368 19.0522ZM1.79687 9.09102C1.79687 5.06899 5.06898 1.79688 9.09101 1.79688C13.113 1.79688 16.3852 5.06899 16.3852 9.09102C16.3852 13.1131 13.113 16.3852 9.09101 16.3852C5.06903 16.3852 1.79687 13.113 1.79687 9.09102ZM19.6875 20.831L17.544 18.6875L18.6875 17.544L20.831 19.6875L19.6875 20.831Z" fill="#E8712D"/>
</svg>
