<svg width="35" height="20" viewBox="0 0 35 20" fill="none" xmlns="http://www.w3.org/2000/svg">
<path d="M32.8804 15.7877C31.876 14.5829 30.6939 13.5546 29.5754 12.4627C28.5664 11.4785 28.5028 10.9076 29.3139 9.77164C30.1991 8.53186 31.1512 7.33963 32.0445 6.10545C32.8783 4.95203 33.7307 3.80175 34.1695 2.42073C34.4478 1.54211 34.2017 1.15403 33.3007 1.00019C33.1455 0.973271 32.985 0.971873 32.8269 0.971873L27.4815 0.965579C26.8231 0.95579 26.4592 1.24283 26.2263 1.82636C25.912 2.61512 25.5879 3.40318 25.2135 4.16432C24.3639 5.89008 23.415 7.55815 22.0847 8.97064C21.7913 9.28216 21.4669 9.67584 20.9767 9.51361C20.3634 9.28985 20.1827 8.27943 20.1928 7.93784L20.1876 1.76797C20.0687 0.886564 19.8733 0.493583 18.9981 0.322266L13.4454 0.323315C12.7042 0.323315 12.3325 0.609659 11.9367 1.07326C11.7084 1.34108 11.6395 1.51484 12.1087 1.60365C13.0304 1.77846 13.5496 2.37493 13.6873 3.29899C13.9083 4.77547 13.8929 6.25788 13.7656 7.7403C13.7282 8.17314 13.6537 8.60493 13.4821 9.0091C13.2136 9.64437 12.78 9.77373 12.2105 9.38285C11.6948 9.02903 11.3326 8.52976 10.978 8.02839C9.64632 6.1467 8.5838 4.11747 7.71743 1.98509C7.46709 1.36905 7.0353 0.995647 6.38255 0.985508C4.77881 0.959985 3.17472 0.955789 1.57098 0.986906C0.606012 1.00509 0.318269 1.47359 0.71125 2.34835C2.45799 6.23376 4.40226 10.0111 6.94021 13.4522C8.24327 15.2181 9.73932 16.7771 11.6721 17.8819C13.8625 19.1343 16.2204 19.5112 18.7038 19.3951C19.8666 19.3406 20.2159 19.0382 20.2697 17.8791C20.3061 17.0862 20.396 16.2978 20.7872 15.5852C21.1711 14.886 21.7525 14.7528 22.4227 15.1877C22.758 15.4055 23.0405 15.6828 23.3073 15.9751C23.9618 16.6911 24.5929 17.4288 25.2722 18.1207C26.1242 18.9878 27.1336 19.5 28.4028 19.3955L33.3157 19.3965C34.1073 19.3448 34.5177 18.3742 34.0632 17.4907C33.744 16.8719 33.3252 16.3208 32.8804 15.7877Z" fill="#00B341"/>
</svg>
